<svg xmlns="http://www.w3.org/2000/svg" viewBox="0 0 640 360" width="640" height="360"><defs><linearGradient id="sky" x1="0" y1="0" x2="0" y2="1"><stop offset="0" stop-color="#bcd9ff"/><stop offset="1" stop-color="#f3f8ff"/></linearGradient><linearGradient id="lawn" x1="0" y1="0" x2="0" y2="1"><stop offset="0" stop-color="#7bc98f"/><stop offset="1" stop-color="#4aa56e"/></linearGradient><linearGradient id="pave" x1="0" y1="0" x2="0" y2="1"><stop offset="0" stop-color="#dbe2f2"/><stop offset="1" stop-color="#c2cce2"/></linearGradient><radialGradient id="halo"><stop offset="0" stop-color="#ffc21a" stop-opacity="0.35"/><stop offset="1" stop-color="#ffc21a" stop-opacity="0"/></radialGradient></defs><rect width="640" height="360" fill="url(#sky)"/><circle cx="90" cy="66" r="30" fill="#ffe08a"/><circle cx="90" cy="66" r="46" fill="#ffe08a" opacity=".3"/><g fill="#fff" opacity=".92"><ellipse cx="300" cy="54" rx="35.2" ry="11.200000000000001"/><ellipse cx="319.2" cy="46" rx="22.400000000000002" ry="12.8"/><ellipse cx="280.8" cy="49.2" rx="20.8" ry="9.600000000000001"/></g>
   <rect y="272" width="640" height="88" fill="url(#lawn)"/>
   <polygon points="188,282 240,282 260,360 150,360" fill="#cfd6e6"/>
   <rect x="60" y="176" width="280" height="106" fill="#f7ecd0"/><polygon points="38,180 200,112 362,180" fill="#14307a"/>
   <g><rect x="84" y="200" width="64" height="50" rx="3" fill="#a9c9f5"/><path d="M116 200v50M84 225h64" stroke="#0b1533" stroke-opacity=".35" stroke-width="3"/><rect x="84" y="200" width="64" height="50" rx="3" fill="none" stroke="#e8eefc" stroke-opacity=".7" stroke-width="3"/></g><g><rect x="252" y="200" width="64" height="50" rx="3" fill="#a9c9f5"/><path d="M284 200v50M252 225h64" stroke="#0b1533" stroke-opacity=".35" stroke-width="3"/><rect x="252" y="200" width="64" height="50" rx="3" fill="none" stroke="#e8eefc" stroke-opacity=".7" stroke-width="3"/></g>
   <rect x="172" y="212" width="52" height="70" rx="3" fill="#2f6bff"/><rect x="180" y="220" width="16" height="26" fill="#5b8bff"/><rect x="202" y="220" width="16" height="26" fill="#5b8bff"/><circle cx="217" cy="252" r="3.5" fill="#ffc21a"/>
   <rect x="160" y="196" width="76" height="8" fill="#e6eeff"/>
   <circle cx="80" cy="280" r="7" fill="#e5484d"/><circle cx="80" cy="280" r="2.5" fill="#f5a800"/><circle cx="110" cy="286" r="7" fill="#ffc21a"/><circle cx="110" cy="286" r="2.5" fill="#f5a800"/><circle cx="290" cy="280" r="7" fill="#ff8fb1"/><circle cx="290" cy="280" r="2.5" fill="#f5a800"/><circle cx="322" cy="286" r="7" fill="#fff"/><circle cx="322" cy="286" r="2.5" fill="#f5a800"/>
   <circle cx="510" cy="186" r="120" fill="url(#halo)"/>
   <circle cx="510" cy="186" r="96" fill="#fff" stroke="#e6eeff" stroke-width="6"/>
   <path d="M474 96l36 76 36-76" fill="none" stroke="#14307a" stroke-width="6" stroke-linecap="round" stroke-linejoin="round"/>
   <circle cx="510" cy="196" r="40" fill="#fff" stroke="#ffc21a" stroke-width="7"/><circle cx="510" cy="196" r="22" fill="#e5484d"/><ellipse cx="503" cy="188" rx="7" ry="4" fill="#fff" opacity=".5"/>
   <path d="M430 258h32l10-16 14 30 12-22 8 8h40" fill="none" stroke="#2f6bff" stroke-width="4" stroke-linecap="round" stroke-linejoin="round" transform="translate(0 6)"/>
   <g transform="translate(90 300) scale(0.8)"><circle r="30" fill="#fff" stroke="#e6eeff" stroke-width="4"/><path d="M0-18 15-12V2C15 12 8 18 0 22-8 18-15 12-15 2V-12Z" fill="#14307a" stroke="#ffc21a" stroke-width="3" stroke-linejoin="round"/><path d="M-7 1l5 5 10-11" fill="none" stroke="#ffc21a" stroke-width="3.5" stroke-linecap="round" stroke-linejoin="round"/></g></svg>
