<svg xmlns="http://www.w3.org/2000/svg" viewBox="0 0 640 360" width="640" height="360"><defs><linearGradient id="sky" x1="0" y1="0" x2="0" y2="1"><stop offset="0" stop-color="#bcd9ff"/><stop offset="1" stop-color="#f3f8ff"/></linearGradient><linearGradient id="lawn" x1="0" y1="0" x2="0" y2="1"><stop offset="0" stop-color="#7bc98f"/><stop offset="1" stop-color="#4aa56e"/></linearGradient><linearGradient id="pave" x1="0" y1="0" x2="0" y2="1"><stop offset="0" stop-color="#dbe2f2"/><stop offset="1" stop-color="#c2cce2"/></linearGradient></defs><rect width="640" height="360" fill="url(#sky)"/><circle cx="560" cy="60" r="30" fill="#ffe08a"/><circle cx="560" cy="60" r="46" fill="#ffe08a" opacity=".3"/><g fill="#fff" opacity=".92"><ellipse cx="120" cy="56" rx="44" ry="14"/><ellipse cx="144" cy="46" rx="28" ry="16"/><ellipse cx="96" cy="50" rx="26" ry="12"/></g><g fill="#fff" opacity=".92"><ellipse cx="380" cy="40" rx="30.799999999999997" ry="9.799999999999999"/><ellipse cx="396.8" cy="33" rx="19.599999999999998" ry="11.2"/><ellipse cx="363.2" cy="35.8" rx="18.2" ry="8.399999999999999"/></g>
   <rect x="110" y="96" width="420" height="192" fill="#e6c9b0"/>
   <g stroke="#d3b298" stroke-width="2"><path d="M110 108h420"/><path d="M110 122h420"/><path d="M110 136h420"/><path d="M110 150h420"/><path d="M110 164h420"/><path d="M110 178h420"/><path d="M110 192h420"/><path d="M110 206h420"/><path d="M110 220h420"/><path d="M110 234h420"/><path d="M110 248h420"/><path d="M110 262h420"/><path d="M110 276h420"/></g>
   <rect x="100" y="84" width="440" height="16" fill="#14307a"/>
   <rect x="170" y="110" width="300" height="38" rx="6" fill="#fff"/><rect x="190" y="122" width="110" height="14" rx="7" fill="#14307a"/><rect x="312" y="122" width="70" height="14" rx="7" fill="#ffc21a"/><rect x="394" y="122" width="54" height="14" rx="7" fill="#14307a" opacity=".35"/>
   <polygon points="140,154 185,154 190,190 135,190" fill="#14307a"/><polygon points="185,154 230,154 235,190 180,190" fill="#fff"/><polygon points="230,154 275,154 280,190 225,190" fill="#14307a"/><polygon points="275,154 320,154 325,190 270,190" fill="#fff"/><polygon points="320,154 365,154 370,190 315,190" fill="#14307a"/><polygon points="365,154 410,154 415,190 360,190" fill="#fff"/><polygon points="410,154 455,154 460,190 405,190" fill="#14307a"/><polygon points="455,154 500,154 505,190 450,190" fill="#fff"/>
   <rect x="150" y="198" width="160" height="82" rx="4" fill="#a9c9f5"/><path d="M150 280 220 198h30l-70 82zM230 280l60-82h16l-60 82z" fill="#fff" opacity=".28"/><rect x="150" y="198" width="160" height="82" rx="4" fill="none" stroke="#14307a" stroke-width="5"/>
   <rect x="336" y="198" width="76" height="90" rx="4" fill="#a9c9f5"/><rect x="336" y="198" width="76" height="90" rx="4" fill="none" stroke="#14307a" stroke-width="5"/><path d="M374 198v90" stroke="#14307a" stroke-width="4"/>
   <rect x="422" y="234" width="12" height="20" rx="3" fill="#14307a"/><circle cx="428" cy="241" r="2.6" fill="#ffc21a"/>
   <g transform="translate(514 170) scale(-0.9 0.9)"><rect x="-6" y="-6" width="10" height="14" rx="2" fill="#cbd6ee"/><rect x="0" y="-9" width="36" height="16" rx="7" fill="#fff" stroke="#b9c6e3" stroke-width="1.5"/><circle cx="36" cy="-1" r="6.5" fill="#0a1a45"/><circle cx="36" cy="-1" r="2.6" fill="#2f6bff"/></g>
   <rect y="288" width="640" height="72" fill="url(#pave)"/>
   <rect x="585.5" y="295" width="9" height="45" fill="#4a3324"/><circle cx="590" cy="268" r="34.2" fill="#4aa56e"/><circle cx="566.6" cy="287.8" r="25.2" fill="#4aa56e"/><circle cx="613.4" cy="286" r="27" fill="#4aa56e"/>
   <rect x="448" y="270" width="60" height="18" rx="3" fill="#7a5a44"/><g fill="#4aa56e"><circle cx="462" cy="266" r="9"/><circle cx="478" cy="264" r="10"/><circle cx="494" cy="266" r="9"/></g>
   <g transform="translate(72 84) scale(1)"><circle r="30" fill="#fff" stroke="#e6eeff" stroke-width="4"/><path d="M0-18 15-12V2C15 12 8 18 0 22-8 18-15 12-15 2V-12Z" fill="#14307a" stroke="#ffc21a" stroke-width="3" stroke-linejoin="round"/><path d="M-7 1l5 5 10-11" fill="none" stroke="#ffc21a" stroke-width="3.5" stroke-linecap="round" stroke-linejoin="round"/></g></svg>
