<svg xmlns="http://www.w3.org/2000/svg" viewBox="0 0 640 360" width="640" height="360"><defs><linearGradient id="sky" x1="0" y1="0" x2="0" y2="1"><stop offset="0" stop-color="#070f28"/><stop offset="1" stop-color="#1c3266"/></linearGradient><radialGradient id="lamp"><stop offset="0" stop-color="#ffe7a8" stop-opacity="0.85"/><stop offset="1" stop-color="#ffe7a8" stop-opacity="0"/></radialGradient><linearGradient id="road" x1="0" y1="0" x2="0" y2="1"><stop offset="0" stop-color="#2b3450"/><stop offset="1" stop-color="#161c30"/></linearGradient><pattern id="scan" width="4" height="4" patternUnits="userSpaceOnUse"><rect width="4" height="1.4" fill="#000" opacity=".16"/></pattern><radialGradient id="vig" cx=".5" cy=".5" r=".75"><stop offset=".6" stop-color="#000" stop-opacity="0"/><stop offset="1" stop-color="#000" stop-opacity=".55"/></radialGradient></defs><rect width="640" height="360" fill="url(#sky)"/>
   <circle cx="0" cy="8" r="1.1" fill="#fff" opacity=".55"/><circle cx="83" cy="55" r="1.1" fill="#fff" opacity=".55"/><circle cx="166" cy="42" r="1.1" fill="#fff" opacity=".55"/><circle cx="249" cy="29" r="1.1" fill="#fff" opacity=".55"/><circle cx="332" cy="16" r="1.1" fill="#fff" opacity=".55"/><circle cx="415" cy="63" r="1.1" fill="#fff" opacity=".55"/><circle cx="498" cy="50" r="1.1" fill="#fff" opacity=".55"/><circle cx="581" cy="37" r="1.1" fill="#fff" opacity=".55"/><circle cx="24" cy="24" r="1.1" fill="#fff" opacity=".55"/><circle cx="107" cy="11" r="1.1" fill="#fff" opacity=".55"/><circle cx="190" cy="58" r="1.1" fill="#fff" opacity=".55"/><circle cx="273" cy="45" r="1.1" fill="#fff" opacity=".55"/><circle cx="356" cy="32" r="1.1" fill="#fff" opacity=".55"/><circle cx="439" cy="19" r="1.1" fill="#fff" opacity=".55"/><circle cx="522" cy="66" r="1.1" fill="#fff" opacity=".55"/><circle cx="605" cy="53" r="1.1" fill="#fff" opacity=".55"/><circle cx="48" cy="40" r="1.1" fill="#fff" opacity=".55"/><circle cx="131" cy="27" r="1.1" fill="#fff" opacity=".55"/><circle cx="214" cy="14" r="1.1" fill="#fff" opacity=".55"/><circle cx="297" cy="61" r="1.1" fill="#fff" opacity=".55"/><circle cx="380" cy="48" r="1.1" fill="#fff" opacity=".55"/><circle cx="463" cy="35" r="1.1" fill="#fff" opacity=".55"/>
   <rect y="270" width="640" height="90" fill="url(#road)"/>
   <rect y="258" width="640" height="18" fill="#123222"/>
   <rect x="0" y="52" width="330" height="208" fill="#767f9d"/>
   <rect x="0" y="40" width="340" height="18" fill="#14224a"/>
   <g stroke="#666f8c" stroke-width="2"><path d="M0 70h330"/><path d="M0 86h330"/><path d="M0 102h330"/><path d="M0 118h330"/><path d="M0 134h330"/><path d="M0 150h330"/><path d="M0 166h330"/><path d="M0 182h330"/><path d="M0 198h330"/><path d="M0 214h330"/><path d="M0 230h330"/><path d="M0 246h330"/></g>
   <rect x="36" y="118" width="190" height="142" fill="#b6bed4"/>
   <g stroke="#8f99b6" stroke-width="3"><path d="M36 146h190"/><path d="M36 174h190"/><path d="M36 202h190"/><path d="M36 230h190"/><path d="M36 258h190"/></g>
   <g fill="#e6ecfa" opacity=".85"><rect x="44" y="124" width="22" height="12" rx="2"/><rect x="74" y="124" width="22" height="12" rx="2"/><rect x="104" y="124" width="22" height="12" rx="2"/><rect x="134" y="124" width="22" height="12" rx="2"/><rect x="164" y="124" width="22" height="12" rx="2"/><rect x="194" y="124" width="22" height="12" rx="2"/></g>
   <g><rect x="250" y="120" width="56" height="64" rx="3" fill="#ffd489"/><path d="M278 120v64M250 152h56" stroke="#0b1533" stroke-opacity=".35" stroke-width="3"/><rect x="250" y="120" width="56" height="64" rx="3" fill="none" stroke="#dfe6f5" stroke-opacity=".7" stroke-width="3"/></g>
   <rect x="226" y="98" width="8" height="10" rx="2" fill="#fff4cf"/><circle cx="230" cy="106" r="46" fill="url(#lamp)" opacity=".7"/>
   <rect x="596" y="86" width="6" height="184" fill="#2b3552"/><rect x="560" y="82" width="46" height="8" rx="4" fill="#2b3552"/>
   <circle cx="566" cy="94" r="110" fill="url(#lamp)"/><rect x="558" y="88" width="16" height="6" rx="3" fill="#fff4cf"/>
   <ellipse cx="420" cy="322" rx="120" ry="12" fill="#000" opacity=".3"/>
   <rect x="330" y="252" width="220" height="44" rx="16" fill="#1f3b7a"/>
   <path d="M366 252 388 220Q392 214 402 214H480Q490 214 496 222L518 252Z" fill="#1a3268"/>
   <path d="M378 250 394 224H436V250ZM444 250V224H478L500 250Z" fill="#8fb1e6" opacity=".75"/>
   <circle cx="382" cy="298" r="20" fill="#10182f"/><circle cx="382" cy="298" r="9" fill="#6c7793"/>
   <circle cx="506" cy="298" r="20" fill="#10182f"/><circle cx="506" cy="298" r="9" fill="#6c7793"/>
   <rect x="536" y="262" width="16" height="10" rx="4" fill="#fff4cf"/><polygon points="552,262 640,244 640,296 552,272" fill="#fff4cf" opacity=".12"/>
   <rect x="330" y="262" width="10" height="10" rx="3" fill="#e5484d"/>
   <rect x="322" y="208" width="236" height="96" fill="none" stroke="#ffc21a" stroke-width="2" stroke-dasharray="6 4"/><rect x="322" y="191" width="61.800000000000004" height="17" fill="#ffc21a"/><text x="327" y="203" font-family="Arial,Helvetica,sans-serif" font-size="11" font-weight="700" fill="#0a1a45">VEHICLE</text>
   <rect width="640" height="360" fill="#0a2a4a" opacity=".18"/><rect width="640" height="360" fill="url(#scan)"/><rect width="640" height="360" fill="url(#vig)"/></svg>
