<svg xmlns="http://www.w3.org/2000/svg" viewBox="0 0 320 240" width="320" height="240"><defs><linearGradient id="wh" x1="0" y1="0" x2="0" y2="1"><stop offset="0" stop-color="#ffffff"/><stop offset="1" stop-color="#e3eaf8"/></linearGradient><linearGradient id="dk" x1="0" y1="0" x2="0" y2="1"><stop offset="0" stop-color="#2b3552"/><stop offset="1" stop-color="#131a30"/></linearGradient><radialGradient id="halo"><stop offset="0" stop-color="#ffd489" stop-opacity="0.55"/><stop offset="1" stop-color="#ffd489" stop-opacity="0"/></radialGradient></defs><ellipse cx="160" cy="218" rx="90" ry="10" fill="#0a1a45" opacity=".13"/>
  <circle cx="160" cy="98" r="110" fill="url(#halo)"/>
  <path d="M160 34a58 58 0 0 0-34 105c6 5 8 10 8 16h52c0-6 2-11 8-16A58 58 0 0 0 160 34Z" fill="#fff6d8" stroke="#f0d78a" stroke-width="2"/>
  <path d="M142 150V110l18 14 18-14v40" fill="none" stroke="#f5a800" stroke-width="3" stroke-linecap="round" stroke-linejoin="round"/>
  <rect x="132" y="156" width="56" height="12" rx="4" fill="#cbd6ee"/><rect x="136" y="168" width="48" height="12" rx="4" fill="#b9c6e3"/><rect x="142" y="180" width="36" height="14" rx="6" fill="#9aa8ca"/>
  <g fill="none" stroke="#2f6bff" stroke-width="3" stroke-linecap="round" opacity=".8"><path d="M232 62q14 10 0 24M244 54q22 18 0 40"/></g></svg>
